<?xml version="1.0" encoding="utf-8" standalone="yes"?>
<!DOCTYPE svg PUBLIC "-//W3C//DTD SVG 1.1//EN" "http://www.w3.org/Graphics/SVG/1.1/DTD/svg11.dtd">
<!-- Generator: Adobe Illustrator 17.0.0, SVG Export Plug-In . SVG Version: 6.00 Build 0)  --><svg xmlns="http://www.w3.org/2000/svg" xmlns:xlink="http://www.w3.org/1999/xlink" version="1.1" id="Layer_1" x="0px" y="0px" width="200px" height="50px" viewBox="0 0 200 50" enable-background="new 0 0 288 288" xml:space="preserve" style="zoom: 2;"><g><g><path fill="#ffffff" d="M61.911003,37.309006 v-9.928 c0,-2.263 -1.181,-2.972 -3.006,-2.972 c-1.688,0 -3.006,0.946 -3.715,1.892 v11.009 h-4.323 v-22.525 h4.323 v8.307 c1.047,-1.216 3.04,-2.499 5.707,-2.499 c3.58,0 5.302,1.958 5.302,5.133 v11.583 H61.911003  z "></path><path fill="#fcffff" d="M81.671005,37.309006 v-2.094 c-1.283,1.621 -3.039,2.499 -5.032,2.499 c-4.086,0 -7.227,-3.107 -7.227,-8.578 c0,-5.302 3.073,-8.544 7.227,-8.544 c1.925,0 3.715,0.81 5.032,2.499 v-2.094 h4.323 v16.311 H81.671005  z M81.671005,32.039993 V26.300003 c-0.709,-1.081 -2.263,-1.892 -3.681,-1.892 c-2.465,0 -4.154,1.925 -4.154,4.728 c0,2.837 1.688,4.761 4.154,4.761 C79.407997,33.897995 80.960999,33.121002 81.671005,32.039993  z "></path><path fill="#fcffff" d="M89.848007,16.675003 c0,-1.418 1.148,-2.533 2.533,-2.533 c1.419,0 2.567,1.115 2.567,2.533 c0,1.419 -1.148,2.567 -2.567,2.567 C90.996002,19.240997 89.848007,18.093002 89.848007,16.675003  z M90.251999,37.309006 v-16.311 h4.289 v16.311 H90.251999  z "></path><path fill="#fcffff" d="M109.807007,37.309006 v-9.861 c0,-2.263 -1.181,-3.04 -3.005,-3.04 c-1.688,0 -2.972,0.946 -3.715,1.892 v11.009 h-4.289 v-16.311 h4.289 v2.094 c1.047,-1.216 3.073,-2.499 5.707,-2.499 c3.614,0 5.335,2.026 5.335,5.2 v11.516 H109.807007  z "></path><path fill="#ff8d21" d="M116.903,34.134003 l2.634,-3.748 c1.586,1.654 4.051,3.073 7.158,3.073 c2.668,0 3.918,-1.182 3.918,-2.499 c0,-3.917 -12.968,-1.181 -12.968,-9.658 c0,-3.748 3.242,-6.855 8.543,-6.855 c3.58,0 6.552,1.081 8.782,3.14 l-2.668,3.58 c-1.823,-1.688 -4.256,-2.465 -6.552,-2.465 c-2.026,0 -3.174,0.878 -3.174,2.229 c0,3.546 12.934,1.148 12.934,9.557 c0,4.12 -2.972,7.227 -9.017,7.227 C122.138,37.714005 119.029999,36.261993 116.903,34.134003  z "></path><path fill="#ff8d21" d="M149.664993,37.309006 v-9.928 c0,-2.263 -1.183,-2.972 -3.006,-2.972 c-1.688,0 -3.005,0.946 -3.715,1.892 v11.009 h-4.323 v-22.525 h4.323 v8.307 c1.047,-1.216 3.04,-2.499 5.707,-2.499 c3.58,0 5.302,1.958 5.302,5.133 v11.583 H149.664993  z "></path><path fill="#FF8622" d="M157.166,29.136002 c0,-4.627 3.242,-8.544 8.611,-8.544 c5.403,0 8.645,3.917 8.645,8.544 s-3.242,8.578 -8.645,8.578 C160.408005,37.714005 157.166,33.763 157.166,29.136002  z M169.964996,29.136002 c0,-2.533 -1.485,-4.728 -4.188,-4.728 c-2.667,0 -4.154,2.195 -4.154,4.728 c0,2.567 1.487,4.761 4.154,4.761 C168.479996,33.897995 169.964996,31.703003 169.964996,29.136002  z "></path><path fill="#ff8d21" d="M178.514008,33.223007 v-8.476 h-2.702 v-3.749 h2.702 v-4.458 h4.289 v4.458 h3.309 v3.749 h-3.309 v7.328 c0,1.047 0.54,1.823 1.485,1.823 c0.642,0 1.25,-0.236 1.485,-0.506 l0.913,3.275 c-0.642,0.574 -1.791,1.047 -3.58,1.047 C180.100006,37.714005 178.514008,36.160995 178.514008,33.223007  z "></path></g><g><path fill="#ff8d21" d="M37.753998,31.604004 c-2.034,4.302 -6.4,7.286 -11.475,7.286 c-7.014,0 -12.7,-5.686 -12.7,-12.7 c0,-7.014 5.686,-12.7 12.7,-12.7 c5.075,0 9.442,2.984 11.475,7.287 h6.069 c0.97,0 1.869,0.306 2.614,0.825 v-7.05 l-20.158,-11.638 L6.119999,14.552002 v23.278 l20.158,11.638 l20.158,-11.638 v-6.275 v-0.775 c-0.745,0.519 -1.644,0.825 -2.614,0.825 H37.753998  z "></path><path fill="#ff8d21" d="M43.822998,23.768997 h-5.082 c0.152,0.785 0.237,1.593 0.237,2.422 c0,0.829 -0.085,1.638 -0.237,2.422 h5.082 c0.931,0 1.687,-0.768 1.687,-1.712 v-1.42 C45.510002,24.537003 44.753998,23.768997 43.822998,23.768997  z "></path></g></g></svg>
