<?xml version="1.0" encoding="utf-8" standalone="yes"?>
<!DOCTYPE svg PUBLIC "-//W3C//DTD SVG 1.1//EN" "http://www.w3.org/Graphics/SVG/1.1/DTD/svg11.dtd">
<!-- Generator: Adobe Illustrator 17.0.0, SVG Export Plug-In . SVG Version: 6.00 Build 0)  --><svg xmlns="http://www.w3.org/2000/svg" xmlns:xlink="http://www.w3.org/1999/xlink" version="1.1" id="Layer_1" x="0px" y="0px" width="72px" height="72px" viewBox="72 72 144 144" enable-background="new 0 0 288 288" xml:space="preserve" style="zoom: 1;"><rect display="none" width="72" height="72"></rect><g><path fill="#ff8d21" d="M170.638,158.28 c-4.721,9.987 -14.858,16.914 -26.638,16.914 c-16.282,0 -29.481,-13.199 -29.481,-29.481 c0,-16.282 13.199,-29.481 29.481,-29.481 c11.781,0 21.918,6.927 26.639,16.915 h14.089 c2.251,0 4.338,0.71 6.067,1.914 v-16.367 L144,91.679 l-46.795,27.016 v54.036 L144,199.747 l46.795,-27.016 v-14.567 v-1.798 c-1.729,1.204 -3.817,1.914 -6.067,1.914 H170.638  z "></path><path fill="#ff8d21" d="M184.728,140.091 h-11.797 c0.352,1.821 0.55,3.698 0.55,5.622 c0,1.925 -0.198,3.802 -0.551,5.624 h11.797 c2.161,0 3.917,-1.784 3.917,-3.975 v-3.295 C188.644,141.875 186.888,140.091 184.728,140.091  z "></path></g></svg>
