<svg version="1.1" xmlns="http://www.w3.org/2000/svg" xmlns:xlink="http://www.w3.org/1999/xlink" x="0px" y="0px" viewBox="0 0 1000 1000" enable-background="new 0 0 1000 1000" xml:space="preserve">
<g><path d="M910.3,533.6c-6.5-6.5-13.2-12.6-20.2-18.3V45.6c0-24-19.6-43.6-43.6-43.6H53.6C29.6,1.9,10,21.5,10,45.6V874c0,24,19.6,43.6,43.6,43.6h468.9v-2.4c1,1,2,2.1,3,3.1c51.4,51.4,119.7,79.7,192.4,79.7c72.7,0,141-28.3,192.4-79.7S990,798.7,990,726C990,653.3,961.7,585,910.3,533.6z M53.6,883.9c-5.4,0-9.9-4.4-9.9-9.9V45.6c0-5.4,4.4-9.9,9.9-9.9h792.9c5.5,0,9.9,4.4,9.9,9.9v446.1c-41.5-24.6-89-37.8-138.5-37.8c-63.3,0-123.3,21.5-171.6,60.9H260.5v33.7h251.2c-30.8,35.7-51.4,78.1-60.5,123.7H260.5V706h186.1c-0.5,6.6-0.7,13.3-0.7,20c0,57.4,17.7,112.1,50.5,157.9L53.6,883.9L53.6,883.9z M717.9,964.3c-131.4,0-238.3-106.9-238.3-238.3c0-131.4,106.9-238.3,238.3-238.3c131.4,0,238.3,106.9,238.3,238.3C956.3,857.4,849.4,964.3,717.9,964.3z"/><path d="M863.2,648.3L706.6,800.2l-96.7-81.6l-21.7,25.8l120,101.2l178.5-173.1L863.2,648.3z"/><path d="M145.4,200h81.3v33.7h-81.3V200z"/><path d="M260.5,200h502.8v33.7H260.5V200L260.5,200z"/><path d="M145.4,357.4h81.3v33.7h-81.3V357.4z"/><path d="M260.5,357.4h502.8v33.7H260.5V357.4L260.5,357.4z"/><path d="M145.4,514.9h81.3v33.7h-81.3V514.9z"/><path d="M145.4,672.3h81.3V706h-81.3V672.3z"/></g>
</svg>
